HIERARCHY
ROOT Hips
{
  OFFSET 1.44925e-005 102.336 -0.101585
  CHANNELS 6 Xposition Yposition Zposition Zrotation Xrotation Yrotation
  JOINT LeftUpLeg
  {
    OFFSET 8.9458 -8.66707 0.101652
    CHANNELS 3 Zrotation Xrotation Yrotation
    JOINT LeftLeg
    {
      OFFSET 0 -44.4227 1.3727
      CHANNELS 3 Zrotation Xrotation Yrotation
      JOINT LeftFoot
      {
        OFFSET -0.253549 -42.0924 -1.46059
        CHANNELS 3 Zrotation Xrotation Yrotation
        JOINT LeftToes
        {
          OFFSET -0.04 -4.41509 8.4991
          CHANNELS 3 Zrotation Xrotation Yrotation
          End Site
          {
            OFFSET 0.08 -0.047448 9.77979
          }
        }
      }
    }
  }
  JOINT Spine
  {
    OFFSET 0 11.8905 0
    CHANNELS 3 Zrotation Xrotation Yrotation
    JOINT Spine1
    {
      OFFSET 0 25.6574 0.127663
      CHANNELS 3 Zrotation Xrotation Yrotation
      JOINT RightShoulder
      {
        OFFSET -8.99 -0.362252 -0.22
        CHANNELS 3 Zrotation Xrotation Yrotation
        JOINT RightArm
        {
          OFFSET -10.2827 -0.00338 0.322123
          CHANNELS 3 Zrotation Xrotation Yrotation
          JOINT RightForeArm
          {
            OFFSET -26.364 0.099144 -1.42434
            CHANNELS 3 Zrotation Xrotation Yrotation
            JOINT RightHand
            {
              OFFSET -22.0324 0.085362 1.02216
              CHANNELS 3 Zrotation Xrotation Yrotation
              End Site
              {
                OFFSET -13.3284 -0.6 1.50291
              }
            }
          }
        }
      }
      JOINT LeftShoulder1
      {
        OFFSET 8.99 -0.362252 -0.22
        CHANNELS 3 Zrotation Xrotation Yrotation
        JOINT LeftArm
        {
          OFFSET 10.2827 -0.00337999 0.322123
          CHANNELS 3 Zrotation Xrotation Yrotation
          JOINT LeftForeArm
          {
            OFFSET 26.2597 0.099144 -1.42434
            CHANNELS 3 Zrotation Xrotation Yrotation
            JOINT LeftHand
            {
              OFFSET 22.0902 0.085362 1.02216
              CHANNELS 3 Zrotation Xrotation Yrotation
              End Site
              {
                OFFSET 13.419 -0.6 1.50291
              }
            }
          }
        }
      }
      JOINT Head
      {
        OFFSET 0 8.73416 0.011341
        CHANNELS 3 Zrotation Xrotation Yrotation
        End Site
        {
          OFFSET -0.29 12.7742 2.51395
        }
      }
    }
  }
  JOINT RightUpLeg
  {
    OFFSET -8.9458 -8.66707 0.101652
    CHANNELS 3 Zrotation Xrotation Yrotation
    JOINT RightLeg
    {
      OFFSET 0 -44.4227 1.3727
      CHANNELS 3 Zrotation Xrotation Yrotation
      JOINT RightFoot
      {
        OFFSET 0.253549 -42.0924 -1.46059
        CHANNELS 3 Zrotation Xrotation Yrotation
        JOINT RightToes
        {
          OFFSET 0.04 -4.41509 8.4991
          CHANNELS 3 Zrotation Xrotation Yrotation
          End Site
          {
            OFFSET -0.08 -0.137448 9.77979
          }
        }
      }
    }
  }
}
MOTION
Frames:	8
Frame Time:	0.0333333
100.613 100.284 2.63566 -6.58249 2.37718 -92.8566 2.29633 -12.2802 0.620202 0.416408 8.08092 10.2339 -1.40498 6.3143 0.117348 -1.36374e-009 8.75185e-006 -1.47182e-008 5.90072 5.8119 -0.462822 -0.941516 9.74623 0.0707816 33.9834 1.81438 0.504665 44.212 -5.32393 20.6605 5.90152 29.4616 14.2906 -7.77693 9.58195 -0.263748 -43.9673 3.38099 -3.18005 -25.9741 -7.94662 -12.0607 2.40021 28.7759 -29.3314 5.82328 9.61819 -0.917488 -2.16232 -13.7947 -0.643529 4.99692 11.3377 -5.0428 3.09672 12.5131 -25.9802 3.40617 -21.5517 0.159148 0.0462048 0.000530889 0.662642 
100.633 100.279 2.67258 -6.55013 2.40492 -92.8926 2.30715 -12.3092 0.625147 0.409566 8.05973 10.2287 -1.17623 6.35403 0.0897183 -1.36374e-009 8.75185e-006 -1.47182e-008 5.95683 5.74938 -0.470531 -0.981164 9.73235 0.0713894 34.0372 1.81438 0.504665 44.7392 -6.90076 20.8985 6.46523 31.1171 13.0895 -7.79157 9.58244 -0.21983 -43.9705 3.38369 -3.18491 -25.9336 -7.4804 -12.1458 2.18113 28.563 -28.7616 5.82328 9.61819 -0.917488 -2.22117 -13.7156 -0.637391 4.99038 11.2914 -5.03699 3.09377 12.5145 -25.9065 3.38814 -21.5621 0.159159 0.0462048 0.000530889 0.662642 
100.672 100.274 2.74332 -6.51001 2.44317 -92.9521 2.32573 -12.3766 0.636188 0.400003 8.0684 10.2908 -1.22237 6.36418 0.095372 -1.36374e-009 8.75185e-006 -1.47182e-008 6.06116 5.66707 -0.474873 -1.07403 9.68785 0.0865989 34.0464 1.81438 0.505069 45.7578 -9.78785 21.1242 7.43851 34.1287 10.9632 -7.84135 9.58814 -0.36227 -44.0509 3.39356 -3.19274 -25.6445 -6.11638 -12.2594 1.48183 27.7429 -27.282 5.82328 9.61819 -0.917488 -2.40215 -13.6196 -0.555309 4.97342 11.2402 -5.01962 3.08213 12.4878 -25.7958 3.39765 -21.5937 0.159194 0.0462048 0.000530889 0.662642 
100.706 100.271 2.81451 -6.55879 2.48073 -93.0048 2.35281 -12.3496 0.681166 0.385343 8.08147 10.3671 -1.55927 6.33189 0.136268 -1.36374e-009 8.75185e-006 -1.47182e-008 6.26304 5.6803 -0.488872 -1.3567 9.65664 0.148466 34.111 1.81438 0.501477 46.5746 -12.354 21.0104 8.28204 36.7184 9.07138 -7.92807 9.60518 -0.710947 -44.0924 3.39662 -3.19275 -25.1727 -3.98293 -12.2812 0.453476 26.339 -25.2087 5.82328 9.61819 -0.917488 -2.55185 -13.5667 -0.335849 4.95621 11.3149 -5.01326 3.07343 12.4105 -25.7086 3.39991 -21.6174 0.15922 0.0462048 0.000530889 0.662642 
100.733 100.269 2.8788 -6.64479 2.50761 -93.0128 2.35937 -12.2442 0.72112 0.362081 8.02007 10.3859 -1.71591 6.34189 0.155424 -1.36374e-009 8.75185e-006 -1.47182e-008 6.55113 5.76116 -0.5468 -1.80261 9.65243 0.217397 34.3191 1.81438 0.481096 46.8598 -13.9337 20.572 8.84361 38.3641 7.80765 -7.96782 9.61792 -0.950471 -43.998 3.38298 -3.17951 -24.8204 -2.07828 -12.1361 -0.628856 25.2776 -22.969 5.82328 9.61819 -0.917488 -2.50806 -13.5535 -0.0486837 4.93598 11.3973 -5.03863 3.08135 12.4076 -25.6738 3.37789 -21.6336 0.159238 0.0462048 0.000530889 0.662642 
100.779 100.268 2.94841 -6.62918 2.51125 -92.9464 2.31537 -12.2322 0.684976 0.3384 7.88011 10.3672 -1.58449 6.43919 0.140166 -1.36374e-009 8.75185e-006 -1.47182e-008 6.78376 5.82359 -0.659012 -2.13404 9.59341 0.200973 34.5056 1.81439 0.462042 46.875 -14.9002 20.012 9.32374 39.7217 6.78823 -7.8367 9.61949 -0.890038 -43.8945 3.36675 -3.16243 -24.8063 -2.13383 -11.7579 -1.78853 26.2869 -20.7035 5.82328 9.61819 -0.917488 -2.38621 -13.6323 0.212695 4.89768 11.2661 -5.08183 3.10544 12.5881 -25.7054 3.3888 -21.6735 0.161513 0.0462048 0.000530889 0.662642 
100.848 100.267 3.01931 -6.51698 2.50701 -92.8264 2.25016 -12.35 0.591065 0.32981 7.73742 10.3495 -1.49433 6.56913 0.129558 -1.36374e-009 8.75185e-006 -1.47182e-008 6.85854 5.89157 -0.787991 -2.16708 9.41593 0.081556 34.4806 1.81439 0.461116 46.9305 -15.7371 19.3827 9.80878 41.2242 5.74725 -7.53358 9.62139 -0.715914 -43.9592 3.36682 -3.15332 -24.8437 -3.60026 -11.1187 -3.10669 28.816 -18.3634 5.82328 9.61819 -0.917488 -2.45112 -13.89 0.458023 4.85929 10.9799 -5.11012 3.13802 12.8367 -25.7918 3.45654 -21.7282 0.170848 0.0462048 0.000530889 0.662642 
100.913 100.268 3.06988 -6.4431 2.52541 -92.7211 2.22178 -12.4369 0.528967 0.341402 7.62596 10.3231 -1.57171 6.67625 0.14027 -1.36374e-009 8.75185e-006 -1.47182e-008 6.84304 6.01987 -0.876416 -2.04616 9.21198 -0.0400289 34.3328 1.81439 0.469523 46.9935 -16.5292 18.6049 10.1753 42.5365 4.88249 -7.25345 9.63183 -0.700218 -44.1589 3.38065 -3.15118 -24.8074 -5.8532 -10.3156 -4.59954 32.1379 -15.8804 5.82328 9.61819 -0.917488 -2.73692 -14.2888 0.717865 4.85506 10.7979 -5.11163 3.17248 12.9581 -25.8834 3.51598 -21.7475 0.178779 0.0462048 0.000530889 0.662642 
